<svg width="192" height="192" viewBox="0 0 192 192" fill="none" xmlns="http://www.w3.org/2000/svg">
<path d="M162 0H30C13.4315 0 0 13.4315 0 30V162C0 178.569 13.4315 192 30 192H162C178.569 192 192 178.569 192 162V30C192 13.4315 178.569 0 162 0Z" fill="black"/>
<path d="M72.0073 131H54.2361V90.0066H54.074L40.3757 108.264L27.022 90.0066H26.8396V131H9.08862V63.1978H25.9277L40.3757 83.1169L55.1479 63.1978H72.0073V131ZM135.352 131H117.601V109.5H98.1677C98.2623 116.444 100.532 123.611 104.976 131L90.5486 140.544C88.3601 137.261 86.4688 133.769 84.8748 130.068C83.2942 126.353 82.0851 122.53 81.2476 118.599C80.41 114.654 79.9912 110.736 79.9912 106.846C79.9912 102.793 80.4303 98.8145 81.3083 94.9104C82.1864 90.9928 83.5374 87.2642 85.3611 83.7249C87.1848 80.1855 89.4679 77.0446 92.2102 74.3022C95.2227 71.2627 98.4447 68.9391 101.876 67.3315C105.321 65.7104 108.907 64.6162 112.636 64.0488C116.365 63.4814 120.647 63.1978 125.483 63.1978H134.197L138.351 78.4563H124.409C118.627 78.4563 114.061 79.2871 110.711 80.9487C107.374 82.6104 105.037 84.4679 103.7 86.5212C102.376 88.5746 101.113 91.1414 99.9104 94.2214H117.601V80.5435H135.352V131ZM164.552 115.721H187.875L183.721 131H146.801V63.1978H164.552V115.721Z" fill="white"/>
</svg>
