<svg width="256" height="259" viewBox="0 0 256 259" fill="none" xmlns="http://www.w3.org/2000/svg">
<g clip-path="url(#clip0_1_2)">
<path d="M4.49999 165C-1.00001 142 -0.5 133 -1.08778e-05 119C0.499978 105 42.7 128.5 43.5 128.5C44.5 128.5 73 138 74 138C74.8 138 84 135.333 88.5 134L103.5 114L111.5 69.5L168 34L222 66.5C223.667 80 227.1 107.4 227.5 109C227.9 110.6 211.667 128.667 203.5 137.5C186.5 149.667 152.3 174.1 151.5 174.5C150.7 174.9 132.833 199.667 124 212L81 223C81 223 9.99999 188 4.49999 165Z" fill="white"/>
<path d="M127.779 0C60.4204 0 5.24031 52.4123 0 119.014L68.7237 147.688C74.5452 143.666 81.5846 141.322 89.1498 141.322C89.8325 141.322 90.506 141.341 91.1702 141.378L121.736 96.6689V96.0415C121.736 69.1388 143.426 47.2458 170.089 47.2458C196.751 47.2458 218.441 69.1388 218.441 96.0415C218.441 122.944 196.751 144.846 170.089 144.846C169.719 144.846 169.36 144.837 168.991 144.828L125.398 176.205C125.426 176.787 125.444 177.368 125.444 177.94C125.444 198.144 109.161 214.576 89.1498 214.576C71.5837 214.576 56.8868 201.918 53.5655 185.164L4.40998 164.654C19.6327 218.967 69.0835 258.786 127.779 258.786C198.597 258.786 256 200.848 256 129.393C256 57.9294 198.597 0 127.779 0ZM80.352 196.332L64.6034 189.764C67.3896 195.631 72.224 200.539 78.636 203.233C92.4932 209.064 108.472 202.431 114.248 188.435C117.043 181.663 117.062 174.19 114.294 167.4C111.526 160.61 106.295 155.314 99.588 152.491C92.9176 149.696 85.7768 149.797 79.5032 152.187L95.7777 158.977C106 163.276 110.834 175.122 106.572 185.437C102.319 195.751 90.5743 200.632 80.352 196.332ZM202.309 96.0424C202.309 78.1165 187.852 63.5212 170.092 63.5212C152.323 63.5212 137.866 78.1165 137.866 96.0424C137.866 113.968 152.323 128.554 170.092 128.554C187.852 128.554 202.309 113.968 202.309 96.0424ZM145.939 95.9871C145.939 82.4988 156.779 71.5662 170.138 71.5662C183.507 71.5662 194.347 82.4988 194.347 95.9871C194.347 109.475 183.507 120.408 170.138 120.408C156.779 120.408 145.939 109.475 145.939 95.9871Z" fill="black"/>
</g>
<defs>
<clipPath id="clip0_1_2">
<rect width="256" height="259" fill="white"/>
</clipPath>
</defs>
</svg>
