<svg width="48" height="48" viewBox="0 0 48 48" fill="none" xmlns="http://www.w3.org/2000/svg">
<g clip-path="url(#clip0_13_5)">
<path d="M40.5 0H7.5C3.35787 0 0 3.35787 0 7.5V40.5C0 44.6423 3.35787 48 7.5 48H40.5C44.6423 48 48 44.6423 48 40.5V7.5C48 3.35787 44.6423 0 40.5 0Z" fill="black"/>
<path d="M18.0018 32.75H13.559V22.5016H13.5185L10.0939 27.066L6.7555 22.5016H6.7099V32.75H2.27216V15.7994H6.48193L10.0939 20.7792L13.787 15.7994H18.0018V32.75ZM33.838 32.75H29.4002V27.375H24.5419C24.5656 29.111 25.133 30.9028 26.244 32.75L22.6371 35.136C22.09 34.3153 21.6172 33.4422 21.2187 32.517C20.8236 31.5882 20.5213 30.6325 20.3119 29.6497C20.1025 28.6635 19.9978 27.684 19.9978 26.7115C19.9978 25.6983 20.1076 24.7036 20.3271 23.7276C20.5466 22.7482 20.8843 21.816 21.3403 20.9312C21.7962 20.0464 22.367 19.2612 23.0525 18.5756C23.8057 17.8157 24.6112 17.2348 25.469 16.8329C26.3302 16.4276 27.2268 16.154 28.159 16.0122C29.0913 15.8703 30.1618 15.7994 31.3708 15.7994H33.5493L34.5877 19.6141H31.1022C29.6567 19.6141 28.5152 19.8218 27.6777 20.2372C26.8435 20.6526 26.2592 21.117 25.925 21.6303C25.594 22.1437 25.2783 22.7853 24.9776 23.5553H29.4002V20.1359H33.838V32.75ZM41.138 28.9303H46.9688L45.9302 32.75H36.7002V15.7994H41.138V28.9303Z" fill="white"/>
</g>
<defs>
<clipPath id="clip0_13_5">
<rect width="48" height="48" fill="white"/>
</clipPath>
</defs>
</svg>
