<svg width="48" height="48" viewBox="0 0 48 48" fill="none" xmlns="http://www.w3.org/2000/svg">
<g clip-path="url(#clip0_13_8)">
<path d="M24 48C37.2549 48 48 37.2549 48 24C48 10.7452 37.2549 0 24 0C10.7452 0 0 10.7452 0 24C0 37.2549 10.7452 48 24 48Z" fill="black"/>
<path d="M40.008 24C40.0128 24.3289 39.9721 24.657 39.8857 24.9744C39.7993 25.2918 39.6684 25.5959 39.4969 25.8768C39.3258 26.1575 39.1158 26.4132 38.8735 26.6358C38.631 26.8583 38.3585 27.0457 38.064 27.192C38.0705 27.2795 38.0761 27.3679 38.079 27.456C38.0863 27.6319 38.0863 27.8081 38.079 27.984C38.0761 28.0721 38.0705 28.1604 38.064 28.248C38.064 33.624 31.8 37.992 24.072 37.992C16.344 37.992 10.08 33.624 10.08 28.248C10.0734 28.1604 10.068 28.0721 10.065 27.984C10.0578 27.8081 10.0578 27.6319 10.065 27.456C10.068 27.3679 10.0734 27.2795 10.08 27.192C9.61845 26.9798 9.20851 26.6699 8.87856 26.2836C8.54859 25.8975 8.3065 25.4442 8.16901 24.9552C8.03175 24.466 8.00251 23.9528 8.08332 23.4511C8.16413 22.9494 8.35306 22.4713 8.63701 22.05C8.92071 21.6286 9.29267 21.2742 9.72711 21.0109C10.1615 20.7479 10.648 20.5824 11.1528 20.526C11.6577 20.4695 12.1688 20.5233 12.6507 20.6838C13.1327 20.8445 13.574 21.1079 13.944 21.456C14.6309 20.9904 15.3506 20.5751 16.0974 20.2134C16.8444 19.8522 17.6166 19.545 18.408 19.2954C19.1994 19.0458 20.0081 18.8544 20.8272 18.7218C21.6463 18.5892 22.4742 18.5166 23.304 18.504L25.08 10.176C25.0998 10.0794 25.1388 9.9882 25.1946 9.9066C25.2497 9.8256 25.3212 9.756 25.4033 9.7026C25.4863 9.64921 25.5786 9.61259 25.6758 9.5946C25.7724 9.57721 25.872 9.57899 25.968 9.6L31.848 10.776C32.4415 9.75659 33.687 9.31979 34.7868 9.74459C35.8865 10.1694 36.5153 11.3304 36.2694 12.4836C36.024 13.6368 34.9765 14.4408 33.7993 14.3802C32.6214 14.3196 31.662 13.4124 31.536 12.24L26.4 11.16L24.84 18.648C25.6597 18.6654 26.4774 18.7422 27.2863 18.8772C28.9058 19.1472 30.4781 19.6495 31.9542 20.3689C32.6915 20.7275 33.4019 21.139 34.08 21.6C34.5675 21.1319 35.1802 20.8149 35.8441 20.6874C36.5078 20.5594 37.1944 20.6264 37.8209 20.88C38.4476 21.1336 38.9875 21.5629 39.3756 22.1167C39.7638 22.6702 39.9834 23.3243 40.008 24ZM16.1904 27.3185C16.3116 27.6096 16.488 27.8742 16.7112 28.0967C16.9338 28.32 17.1984 28.4964 17.4894 28.6176C17.7807 28.738 18.0928 28.8 18.408 28.8C19.3788 28.8 20.2537 28.215 20.6256 27.3185C20.9969 26.4215 20.7913 25.3897 20.1049 24.7033C19.4185 24.0169 18.3864 23.8111 17.4894 24.1824C16.593 24.5545 16.008 25.4292 16.008 26.4C16.008 26.7151 16.0698 27.0271 16.1904 27.3185ZM29.9365 33.0799C30.0593 32.9599 30.1296 32.7959 30.1321 32.6244C30.1344 32.4522 30.0678 32.2865 29.9478 32.1636C29.8278 32.0406 29.664 31.9703 29.4924 31.968C29.3201 31.9655 29.1546 32.0321 29.016 32.136C28.655 32.3948 28.273 32.6227 27.8736 32.817C27.4742 33.0115 27.0591 33.1718 26.6329 33.2964C26.2069 33.4207 25.7706 33.5088 25.3296 33.5599C24.888 33.6108 24.4433 33.624 24 33.6C23.5573 33.6198 23.1132 33.6017 22.6735 33.5466C22.2334 33.4919 21.7991 33.3995 21.375 33.2705C20.9503 33.1423 20.5381 32.9777 20.1414 32.7798C19.7449 32.5818 19.3657 32.3503 19.008 32.088C18.8838 31.986 18.726 31.9338 18.5652 31.9415C18.4044 31.9494 18.2526 32.0171 18.1386 32.1306C18.0252 32.2447 17.9574 32.3963 17.9496 32.5572C17.9418 32.7179 17.994 32.8758 18.096 33C18.5178 33.318 18.966 33.5988 19.4358 33.84C19.9056 34.0812 20.3958 34.281 20.8998 34.4383C21.4038 34.5953 21.9205 34.7088 22.4442 34.7777C22.968 34.8463 23.4966 34.8695 24.024 34.848C24.5514 34.8695 25.08 34.8463 25.6038 34.7777C26.6529 34.6399 27.6705 34.3227 28.6122 33.84C29.0821 33.5988 29.5302 33.318 29.952 33L29.9365 33.0799ZM29.496 28.992C29.8213 28.9956 30.144 28.9327 30.4447 28.8079C30.7452 28.6825 31.017 28.4976 31.2438 28.2641C31.4705 28.0308 31.647 27.7536 31.7633 27.4495C31.8799 27.1455 31.9333 26.8211 31.92 26.496C31.92 25.5252 31.335 24.6505 30.4385 24.2784C29.5417 23.9071 28.5097 24.1129 27.8233 24.7993C27.1369 25.4857 26.9311 26.5177 27.3024 27.4145C27.6745 28.311 28.5493 28.896 29.52 28.896L29.496 28.992Z" fill="white"/>
</g>
<defs>
<clipPath id="clip0_13_8">
<rect width="48" height="48" fill="white"/>
</clipPath>
</defs>
</svg>
