<svg width="48" height="49" viewBox="0 0 48 49" fill="none" xmlns="http://www.w3.org/2000/svg">
<g clip-path="url(#clip0_13_11)">
<mask id="mask0_13_11" style="mask-type:luminance" maskUnits="userSpaceOnUse" x="0" y="0" width="48" height="49">
<path d="M48 0H0V48.5625H48V0Z" fill="white"/>
</mask>
<g mask="url(#mask0_13_11)">
<path d="M0.843745 30.9375C-0.187505 26.625 -0.0937529 24.9375 -4.89503e-06 22.3125C0.093743 19.6875 8.00625 24.0938 8.15625 24.0938C8.34375 24.0938 13.6875 25.875 13.875 25.875C14.025 25.875 15.75 25.3749 16.5937 25.125L19.4062 21.375L20.9062 13.0312L31.5 6.375L41.625 12.4688C41.9376 15 42.5812 20.1375 42.6562 20.4375C42.7312 20.7375 39.6876 24.1251 38.1562 25.7812C34.9687 28.0626 28.5562 32.6437 28.4062 32.7188C28.2562 32.7938 24.9062 37.4376 23.25 39.75L15.1875 41.8125C15.1875 41.8125 1.875 35.25 0.843745 30.9375Z" fill="white"/>
<path d="M23.9586 0C11.3288 0 0.982558 9.82731 0 22.3151L12.8857 27.6915C13.9772 26.9374 15.2971 26.4979 16.7156 26.4979C16.8436 26.4979 16.9699 26.5014 17.0944 26.5084L22.8255 18.1254V18.0078C22.8255 12.9635 26.8924 8.85859 31.8917 8.85859C36.8908 8.85859 40.9577 12.9635 40.9577 18.0078C40.9577 23.052 36.8908 27.1586 31.8917 27.1586C31.8223 27.1586 31.755 27.1569 31.6858 27.1553L23.5121 33.0384C23.5174 33.1476 23.5208 33.2565 23.5208 33.3638C23.5208 37.152 20.4677 40.233 16.7156 40.233C13.4219 40.233 10.6663 37.8596 10.0435 34.7183L0.826871 30.8726C3.68113 41.0563 12.9532 48.5224 23.9586 48.5224C37.2369 48.5224 48 37.659 48 24.2612C48 10.8618 37.2369 0 23.9586 0ZM15.066 36.8123L12.1131 35.5808C12.6356 36.6808 13.542 37.6011 14.7443 38.1062C17.3425 39.1995 20.3385 37.9558 21.4215 35.3316C21.9456 34.0618 21.9491 32.6606 21.4301 31.3875C20.9111 30.1144 19.9303 29.1214 18.6727 28.5921C17.422 28.068 16.0831 28.0869 14.9068 28.5351L17.9583 29.8082C19.875 30.6143 20.7814 32.8354 19.9822 34.7694C19.1848 36.7033 16.9827 37.6185 15.066 36.8123ZM37.9329 18.0079C37.9329 14.6468 35.2222 11.9102 31.8922 11.9102C28.5606 11.9102 25.8499 14.6468 25.8499 18.0079C25.8499 21.369 28.5606 24.1039 31.8922 24.1039C35.2222 24.1039 37.9329 21.369 37.9329 18.0079ZM27.3636 17.9976C27.3636 15.4685 29.3961 13.4187 31.9009 13.4187C34.4076 13.4187 36.4401 15.4685 36.4401 17.9976C36.4401 20.5266 34.4076 22.5765 31.9009 22.5765C29.3961 22.5765 27.3636 20.5266 27.3636 17.9976Z" fill="black"/>
</g>
</g>
<defs>
<clipPath id="clip0_13_11">
<rect width="48" height="48.5625" fill="white"/>
</clipPath>
</defs>
</svg>
