<svg width="48" height="48" viewBox="0 0 48 48" fill="none" xmlns="http://www.w3.org/2000/svg">
<g clip-path="url(#clip0_13_18)">
<path d="M48.06 10.02C46.2862 10.8075 44.385 11.3363 42.3862 11.5763C44.4262 10.3538 45.9937 8.41875 46.7287 6.11625C44.8237 7.245 42.705 8.06625 40.4587 8.50875C38.6587 6.58875 36.0937 5.3925 33.255 5.3925C27.8025 5.3925 23.3812 9.81 23.3812 15.2625C23.3812 16.035 23.4712 16.7888 23.64 17.5125C15.435 17.1 8.16375 13.17 3.2925 7.19625C2.44125 8.65875 1.9575 10.3538 1.9575 12.1613C1.9575 15.585 3.6975 18.6075 6.34875 20.3813C4.72875 20.3288 3.20625 19.8825 1.875 19.1438C1.875 19.185 1.875 19.2263 1.875 19.2675C1.875 24.0525 5.28 28.0388 9.79125 28.95C8.96625 29.175 8.0925 29.295 7.1925 29.295C6.555 29.295 5.93625 29.235 5.3325 29.115C6.5925 33.0338 10.2375 35.895 14.5537 35.9738C11.1787 38.6213 6.9225 40.1963 2.295 40.1963C1.49625 40.1963 0.712499 40.1513 -0.0562515 40.0575C4.30875 42.8625 9.49875 44.4938 15.075 44.4938C33.2325 44.4938 43.1625 29.4525 43.1625 16.41C43.1625 15.9825 43.1512 15.5513 43.1362 15.1313C45.0637 13.74 46.7362 12 48.06 10.02Z" fill="black"/>
</g>
<defs>
<clipPath id="clip0_13_18">
<rect width="48" height="48" fill="white"/>
</clipPath>
</defs>
</svg>
