<svg width="48" height="48" viewBox="0 0 48 48" fill="none" xmlns="http://www.w3.org/2000/svg">
<g clip-path="url(#clip0_13_18)">
<path d="M40.5 0H7.5C3.35787 0 0 3.35787 0 7.5V40.5C0 44.6423 3.35787 48 7.5 48H40.5C44.6423 48 48 44.6423 48 40.5V7.5C48 3.35787 44.6423 0 40.5 0Z" fill="black"/>
<path d="M43.12 12.6661C41.7147 13.29 40.2085 13.7089 38.625 13.8991C40.2412 12.9305 41.483 11.3975 42.0653 9.57339C40.5561 10.4676 38.8775 11.1183 37.0979 11.4688C35.6719 9.94773 33.6398 9 31.3908 9C27.071 9 23.5683 12.4998 23.5683 16.8195C23.5683 17.4315 23.6396 18.0287 23.7733 18.602C17.2729 18.2752 11.5123 15.1617 7.65304 10.429C6.97864 11.5877 6.59539 12.9305 6.59539 14.3625C6.59539 17.075 7.9739 19.4696 10.0743 20.8748C8.79091 20.8332 7.58471 20.4797 6.53003 19.8944C6.53003 19.9271 6.53003 19.9598 6.53003 19.9924C6.53003 23.7833 9.22763 26.9414 12.8017 27.6634C12.1481 27.8416 11.4558 27.9367 10.7428 27.9367C10.2377 27.9367 9.74755 27.8892 9.26923 27.7941C10.2675 30.8987 13.1552 33.1655 16.5747 33.2279C13.9009 35.3254 10.5289 36.5732 6.86277 36.5732C6.22997 36.5732 5.60904 36.5375 5 36.4633C8.45816 38.6855 12.5699 39.9779 16.9877 39.9779C31.3729 39.9779 39.24 28.0615 39.24 17.7286C39.24 17.3899 39.2311 17.0482 39.2192 16.7155C40.7462 15.6133 42.0713 14.2348 43.12 12.6661Z" fill="white"/>
</g>
<defs>
<clipPath id="clip0_13_18">
<rect width="48" height="48" fill="white"/>
</clipPath>
</defs>
</svg>
